<?xml version="1.0" encoding="UTF-8" standalone="no"?>
<svg
   xmlns:dc="http://purl.org/dc/elements/1.1/"
   xmlns:cc="http://creativecommons.org/ns#"
   xmlns:rdf="http://www.w3.org/1999/02/22-rdf-syntax-ns#"
   xmlns:svg="http://www.w3.org/2000/svg"
   xmlns="http://www.w3.org/2000/svg"
   viewBox="0 0 8000 3148.6399"
   height="3148.6399"
   width="8000"
   xml:space="preserve"
   id="svg2"
   version="1.1"><metadata
     id="metadata8"><rdf:RDF><cc:Work
         rdf:about=""><dc:format>image/svg+xml</dc:format><dc:type
           rdf:resource="http://purl.org/dc/dcmitype/StillImage" /></cc:Work></rdf:RDF></metadata><defs
     id="defs6"><clipPath
       id="clipPath18"
       clipPathUnits="userSpaceOnUse"><path
         id="path16"
         d="M 0,2361.484 H 6000 V 0 H 0 Z" /></clipPath></defs><g
     transform="matrix(1.3333333,0,0,-1.3333333,0,3148.64)"
     id="g10"><g
       id="g12"><g
         clip-path="url(#clipPath18)"
         id="g14"><g
           transform="translate(2447.7378,1178.861)"
           id="g20"><path
             id="path22"
             style="fill:#28387f;fill-opacity:1;fill-rule:nonzero;stroke:none"
             d="m 0,0 c 65.771,0 94.911,38.209 94.911,98.951 0,62.702 -29.14,99.932 -94.911,99.932 H -92.413 V 0 Z M 4.996,-110.708 H -92.413 V -373.273 H -208.97 V 310.571 H 4.996 c 139.868,0 209.803,-93.074 209.803,-211.62 0,-103.85 -59.945,-209.659 -209.803,-209.659" /></g><g
           transform="translate(2743.2876,1489.4324)"
           id="g24"><path
             id="path26"
             style="fill:#28387f;fill-opacity:1;fill-rule:nonzero;stroke:none"
             d="m 0,0 h 116.557 v -423.24 c 0,-94.053 43.291,-143.039 117.389,-143.039 74.929,0 118.224,48.986 118.224,143.039 V 0 h 117.39 v -422.26 c 0,-180.269 -109.897,-268.443 -237.279,-268.443 C 104.9,-690.703 0,-602.529 0,-422.26 Z" /></g><g
           transform="translate(3539.2056,1375.7838)"
           id="g28"><path
             id="path30"
             style="fill:#28387f;fill-opacity:1;fill-rule:nonzero;stroke:none"
             d="M 0,0 H -97.409 V -200.842 H 0 c 64.937,0 94.078,40.168 94.078,101.891 C 94.078,-38.209 64.937,0 0,0 m 4.162,113.649 c 139.869,0 209.802,-95.034 209.802,-209.661 0,-83.276 -39.13,-167.532 -132.374,-196.924 l 139.035,-277.26 H 85.752 l -128.213,266.484 h -54.948 v -266.484 h -116.559 v 683.845 z" /></g><g
           transform="translate(4256.8618,1489.4324)"
           id="g32"><path
             id="path34"
             style="fill:#28387f;fill-opacity:1;fill-rule:nonzero;stroke:none"
             d="M 0,0 H 124.051 L -89.083,-683.845 H -230.614 L -443.747,0 h 124.882 l 159.849,-543.745 z" /></g><path
           id="path36"
           style="fill:#28387f;fill-opacity:1;fill-rule:nonzero;stroke:none"
           d="m 4450.853,1489.432 h 116.559 V 805.587 h -116.559 z" /><g
           transform="translate(5019.4888,1378.7227)"
           id="g38"><path
             id="path40"
             style="fill:#28387f;fill-opacity:1;fill-rule:nonzero;stroke:none"
             d="M 0,0 H -220.625 V -171.45 H -24.976 V -280.199 H -220.625 V -461.447 H 0 v -111.688 h -337.184 v 684.823 l 337.184,0 z" /></g><g
           transform="translate(5086.0947,1489.4324)"
           id="g42"><path
             id="path44"
             style="fill:#28387f;fill-opacity:1;fill-rule:nonzero;stroke:none"
             d="M 0,0 H 124.885 L 227.287,-531.009 345.511,0 H 475.389 L 586.951,-528.07 690.187,0 h 125.717 l -162.35,-683.845 h -137.37 l -109.063,486.92 -114.062,-486.92 -136.539,-0.98 z" /></g><g
           transform="translate(1189.3123,335.7724)"
           id="g46"><path
             id="path48"
             style="fill:#28387f;fill-opacity:1;fill-rule:nonzero;stroke:none"
             d="m 0,0 v 735.524 l 633.017,-368.17 z m -102.851,-59.706 -58.114,-33.724 v 1962.847 l -109.346,-57.254 2.581,-111.97 -36.391,20.863 v -119.755 l 36.391,-20.82 V 1476.34 l -31.186,20.862 v -130.208 l 31.186,-15.615 v -109.345 l -31.186,15.614 v -114.551 l 31.186,-20.776 V 1018.18 L -304.121,1039 V 908.834 L -267.73,893.22 V -28.347 l -93.688,52.092 v 1728.54 l -104.141,-57.297 v -109.302 l -31.229,20.819 v -124.96 l 36.434,-15.615 v -109.346 l -36.434,20.82 v -124.961 l 31.229,-20.776 v -104.141 l -36.434,20.776 V 1028.59 l 36.434,-20.82 V 86.203 L -559.29,143.5 v 1494.235 l -104.098,-57.254 v -109.346 l -36.477,20.863 v -125.004 l 36.477,-20.82 v -104.14 l -36.477,20.819 v -119.756 l 36.477,-20.776 V 195.549 l -98.935,57.254 v 1270.381 l -98.894,-57.254 v -114.551 l -36.477,26.025 v -124.961 l 31.23,-15.614 V 315.305 l -88.484,57.253 v 1041.323 l -109.345,-62.502 V 310.1 L -158.384,-215.767 742.364,310.1 v 1041.279 l -848.699,489.432 v -124.96 l 741.374,-427.274 v -107.325 l -741.374,425.253 v -124.96 L 633.017,1059.819 V 955.721 l -739.352,426.931 V 1252.443 L 633.017,830.718 V 721.415 l -739.352,426.887 V 1023.385 L 633.017,601.617 V 492.314 l -734.147,426.93 v -64.48" /></g></g></g></g></svg>